<svg width="232" height="136" viewBox="0 0 232 136" fill="none" xmlns="http://www.w3.org/2000/svg">
<rect width="232" height="136" fill="#E0E0E0"/>
<rect width="232" height="136" fill="white"/>
<path d="M92.5 48C92.5 68.7644 77.4507 85.5 59 85.5C40.5493 85.5 25.5 68.7644 25.5 48C25.5 27.2356 40.5493 10.5 59 10.5C77.4507 10.5 92.5 27.2356 92.5 48Z" fill="url(#paint0_linear_0_1)" stroke="black"/>
<mask id="path-2-inside-1_0_1" fill="white">
<path d="M40 12C40 10.8954 40.8954 10 42 10H57V86H42C40.8954 86 40 85.1046 40 84V12Z"/>
</mask>
<path d="M40 12C40 10.8954 40.8954 10 42 10H57V86H42C40.8954 86 40 85.1046 40 84V12Z" fill="url(#paint1_linear_0_1)"/>
<path d="M39 12C39 10.3431 40.3431 9 42 9H57V11H42C41.4477 11 41 11.4477 41 12H39ZM57 87H42C40.3431 87 39 85.6569 39 84H41C41 84.5523 41.4477 85 42 85H57V87ZM42 87C40.3431 87 39 85.6569 39 84V12C39 10.3431 40.3431 9 42 9V11C41.4477 11 41 11.4477 41 12V84C41 84.5523 41.4477 85 42 85V87ZM57 10V86V10Z" fill="black" mask="url(#path-2-inside-1_0_1)"/>
<path d="M77.5 48C77.5 54.8428 76.1121 61.013 73.8916 65.4541C71.6561 69.925 68.6604 72.5 65.5 72.5C62.3396 72.5 59.3439 69.925 57.1084 65.4541C54.8879 61.013 53.5 54.8428 53.5 48C53.5 41.1572 54.8879 34.987 57.1084 30.5459C59.3439 26.075 62.3396 23.5 65.5 23.5C68.6604 23.5 71.6561 26.075 73.8916 30.5459C76.1121 34.987 77.5 41.1572 77.5 48Z" fill="white" stroke="black"/>
<rect width="15" height="76" transform="translate(25 10)" fill="white"/>
<path d="M171.5 48C171.5 68.7644 156.451 85.5 138 85.5C119.549 85.5 104.5 68.7644 104.5 48C104.5 27.2356 119.549 10.5 138 10.5C156.451 10.5 171.5 27.2356 171.5 48Z" fill="url(#paint2_linear_0_1)" stroke="black"/>
<mask id="path-6-inside-2_0_1" fill="white">
<path d="M119 12C119 10.8954 119.895 10 121 10H136V86H121C119.895 86 119 85.1046 119 84V12Z"/>
</mask>
<path d="M119 12C119 10.8954 119.895 10 121 10H136V86H121C119.895 86 119 85.1046 119 84V12Z" fill="url(#paint3_linear_0_1)"/>
<path d="M118 12C118 10.3431 119.343 9 121 9H136V11H121C120.448 11 120 11.4477 120 12H118ZM136 87H121C119.343 87 118 85.6569 118 84H120C120 84.5523 120.448 85 121 85H136V87ZM121 87C119.343 87 118 85.6569 118 84V12C118 10.3431 119.343 9 121 9V11C120.448 11 120 11.4477 120 12V84C120 84.5523 120.448 85 121 85V87ZM136 10V86V10Z" fill="black" mask="url(#path-6-inside-2_0_1)"/>
<path d="M156.5 48C156.5 54.8428 155.112 61.013 152.892 65.4541C150.656 69.925 147.66 72.5 144.5 72.5C141.34 72.5 138.344 69.925 136.108 65.4541C133.888 61.013 132.5 54.8428 132.5 48C132.5 41.1572 133.888 34.987 136.108 30.5459C138.344 26.075 141.34 23.5 144.5 23.5C147.66 23.5 150.656 26.075 152.892 30.5459C155.112 34.987 156.5 41.1572 156.5 48Z" fill="white" stroke="black"/>
<rect width="21" height="76" transform="translate(98 10)" fill="#FFFEFE"/>
<rect x="98.5" y="10.5" width="13" height="75" rx="1.5" fill="url(#paint4_linear_0_1)" stroke="black"/>
<rect x="177.5" y="10.5" width="13" height="75" rx="1.5" fill="url(#paint5_linear_0_1)" stroke="black"/>
<rect x="198.5" y="10.5" width="13" height="75" rx="1.5" fill="url(#paint6_linear_0_1)" stroke="black"/>
<g filter="url(#filter0_d_0_1)">
<path d="M67.0572 119V92.8182H70.2276V104.477H84.1879V92.8182H87.3583V119H84.1879V107.29H70.2276V119H67.0572ZM115.797 105.909C115.797 108.67 115.298 111.057 114.301 113.068C113.304 115.08 111.936 116.631 110.197 117.722C108.458 118.812 106.473 119.358 104.24 119.358C102.007 119.358 100.021 118.812 98.2823 117.722C96.5437 116.631 95.1758 115.08 94.1786 113.068C93.1815 111.057 92.6829 108.67 92.6829 105.909C92.6829 103.148 93.1815 100.761 94.1786 98.75C95.1758 96.7386 96.5437 95.1875 98.2823 94.0966C100.021 93.0057 102.007 92.4602 104.24 92.4602C106.473 92.4602 108.458 93.0057 110.197 94.0966C111.936 95.1875 113.304 96.7386 114.301 98.75C115.298 100.761 115.797 103.148 115.797 105.909ZM112.728 105.909C112.728 103.642 112.349 101.729 111.591 100.169C110.841 98.6094 109.822 97.429 108.535 96.6278C107.257 95.8267 105.825 95.4261 104.24 95.4261C102.654 95.4261 101.218 95.8267 99.9315 96.6278C98.6531 97.429 97.6346 98.6094 96.8761 100.169C96.1261 101.729 95.7511 103.642 95.7511 105.909C95.7511 108.176 96.1261 110.089 96.8761 111.649C97.6346 113.209 98.6531 114.389 99.9315 115.19C101.218 115.991 102.654 116.392 104.24 116.392C105.825 116.392 107.257 115.991 108.535 115.19C109.822 114.389 110.841 113.209 111.591 111.649C112.349 110.089 112.728 108.176 112.728 105.909ZM138.309 92.8182H141.48V110.153C141.48 111.943 141.058 113.541 140.214 114.947C139.379 116.345 138.199 117.449 136.673 118.259C135.147 119.06 133.358 119.46 131.304 119.46C129.25 119.46 127.46 119.06 125.934 118.259C124.409 117.449 123.224 116.345 122.38 114.947C121.545 113.541 121.127 111.943 121.127 110.153V92.8182H124.298V109.898C124.298 111.176 124.579 112.314 125.142 113.311C125.704 114.3 126.505 115.08 127.545 115.651C128.593 116.213 129.846 116.494 131.304 116.494C132.761 116.494 134.014 116.213 135.062 115.651C136.11 115.08 136.912 114.3 137.466 113.311C138.028 112.314 138.309 111.176 138.309 109.898V92.8182ZM162.129 99.3636C161.976 98.0682 161.354 97.0625 160.263 96.3466C159.172 95.6307 157.834 95.2727 156.249 95.2727C155.089 95.2727 154.075 95.4602 153.206 95.8352C152.345 96.2102 151.672 96.7259 151.186 97.3821C150.709 98.0384 150.47 98.7841 150.47 99.6193C150.47 100.318 150.636 100.919 150.969 101.422C151.31 101.916 151.744 102.33 152.273 102.662C152.801 102.986 153.355 103.254 153.935 103.467C154.514 103.672 155.047 103.838 155.533 103.966L158.192 104.682C158.874 104.861 159.632 105.108 160.467 105.423C161.311 105.739 162.116 106.169 162.884 106.714C163.659 107.251 164.298 107.942 164.801 108.786C165.304 109.629 165.555 110.665 165.555 111.892C165.555 113.307 165.185 114.585 164.443 115.727C163.71 116.869 162.636 117.777 161.222 118.45C159.815 119.124 158.107 119.46 156.095 119.46C154.22 119.46 152.597 119.158 151.224 118.553C149.861 117.947 148.787 117.104 148.003 116.021C147.227 114.939 146.788 113.682 146.686 112.25H149.959C150.044 113.239 150.376 114.057 150.956 114.705C151.544 115.344 152.286 115.821 153.18 116.136C154.084 116.443 155.055 116.597 156.095 116.597C157.305 116.597 158.392 116.401 159.355 116.009C160.318 115.608 161.081 115.054 161.643 114.347C162.206 113.631 162.487 112.795 162.487 111.841C162.487 110.972 162.244 110.264 161.759 109.719C161.273 109.173 160.634 108.73 159.841 108.389C159.048 108.048 158.192 107.75 157.271 107.494L154.05 106.574C152.004 105.986 150.385 105.146 149.192 104.055C147.999 102.964 147.402 101.537 147.402 99.7727C147.402 98.3068 147.798 97.0284 148.591 95.9375C149.392 94.8381 150.466 93.9858 151.812 93.3807C153.168 92.767 154.68 92.4602 156.351 92.4602C158.038 92.4602 159.538 92.7628 160.851 93.3679C162.163 93.9645 163.203 94.7827 163.97 95.8224C164.746 96.8622 165.155 98.0426 165.197 99.3636H162.129ZM170.768 119V92.8182H186.569V95.6307H173.939V104.477H185.751V107.29H173.939V116.188H186.774V119H170.768Z" fill="#F33C3C"/>
</g>
<rect x="18" y="6" width="22" height="86" fill="white"/>
<rect x="112" y="6" width="7" height="80" fill="#FFFEFE"/>
<defs>
<filter id="filter0_d_0_1" x="63.0572" y="92.4602" width="127.717" height="35" filterUnits="userSpaceOnUse" color-interpolation-filters="sRGB">
<feFlood flood-opacity="0" result="BackgroundImageFix"/>
<feColorMatrix in="SourceAlpha" type="matrix" values="0 0 0 0 0 0 0 0 0 0 0 0 0 0 0 0 0 0 127 0" result="hardAlpha"/>
<feOffset dy="4"/>
<feGaussianBlur stdDeviation="2"/>
<feComposite in2="hardAlpha" operator="out"/>
<feColorMatrix type="matrix" values="0 0 0 0 0 0 0 0 0 0 0 0 0 0 0 0 0 0 0.25 0"/>
<feBlend mode="normal" in2="BackgroundImageFix" result="effect1_dropShadow_0_1"/>
<feBlend mode="normal" in="SourceGraphic" in2="effect1_dropShadow_0_1" result="shape"/>
</filter>
<linearGradient id="paint0_linear_0_1" x1="59" y1="10" x2="59" y2="86" gradientUnits="userSpaceOnUse">
<stop offset="0.0989583" stop-color="#833AB4"/>
<stop offset="0.505208" stop-color="#FD1D1D" stop-opacity="0.5"/>
<stop offset="0.885417" stop-color="#FCB045" stop-opacity="0.98"/>
</linearGradient>
<linearGradient id="paint1_linear_0_1" x1="48.5" y1="10" x2="48.5" y2="86" gradientUnits="userSpaceOnUse">
<stop offset="0.0989583" stop-color="#833AB4"/>
<stop offset="0.505208" stop-color="#FD1D1D" stop-opacity="0.5"/>
<stop offset="0.885417" stop-color="#FCB045" stop-opacity="0.98"/>
</linearGradient>
<linearGradient id="paint2_linear_0_1" x1="138" y1="10" x2="138" y2="86" gradientUnits="userSpaceOnUse">
<stop offset="0.0989583" stop-color="#833AB4"/>
<stop offset="0.505208" stop-color="#FD1D1D" stop-opacity="0.5"/>
<stop offset="0.885417" stop-color="#FCB045" stop-opacity="0.98"/>
</linearGradient>
<linearGradient id="paint3_linear_0_1" x1="127.5" y1="10" x2="127.5" y2="86" gradientUnits="userSpaceOnUse">
<stop offset="0.0989583" stop-color="#833AB4"/>
<stop offset="0.505208" stop-color="#FD1D1D" stop-opacity="0.5"/>
<stop offset="0.885417" stop-color="#FCB045" stop-opacity="0.98"/>
</linearGradient>
<linearGradient id="paint4_linear_0_1" x1="105" y1="10" x2="105" y2="86" gradientUnits="userSpaceOnUse">
<stop offset="0.0989583" stop-color="#833AB4"/>
<stop offset="0.505208" stop-color="#FD1D1D" stop-opacity="0.5"/>
<stop offset="0.885417" stop-color="#FCB045" stop-opacity="0.98"/>
</linearGradient>
<linearGradient id="paint5_linear_0_1" x1="184" y1="10" x2="184" y2="86" gradientUnits="userSpaceOnUse">
<stop offset="0.0989583" stop-color="#833AB4"/>
<stop offset="0.505208" stop-color="#FD1D1D" stop-opacity="0.5"/>
<stop offset="0.885417" stop-color="#FCB045" stop-opacity="0.98"/>
</linearGradient>
<linearGradient id="paint6_linear_0_1" x1="205" y1="10" x2="205" y2="86" gradientUnits="userSpaceOnUse">
<stop offset="0.0989583" stop-color="#833AB4"/>
<stop offset="0.505208" stop-color="#FD1D1D" stop-opacity="0.5"/>
<stop offset="0.885417" stop-color="#FCB045" stop-opacity="0.98"/>
</linearGradient>
</defs>
</svg>
